<svg width="396.494" height="396.494" xmlns="http://www.w3.org/2000/svg">

 <g>
  <title>background</title>
  <rect fill="none" id="canvas_background" height="402" width="582" y="-1" x="-1"/>
 </g>
 <g>
  <title>Layer 1</title>
  <g id="svg_1">
   <path id="svg_2" d="m304.42,330.901l-43.219,0c-1.56,0 -2.834,-1.273 -2.834,-2.834l0,-10.52c0,-1.559 -1.275,-2.834 -2.834,-2.834l-60.475,0c-1.56,0 -2.835,1.275 -2.835,2.834l0,10.52c0,1.561 -1.275,2.834 -2.835,2.834l-32.491,0c-1.56,0 -2.835,1.275 -2.835,2.834l0,12.17c0,1.559 1.275,2.834 2.835,2.834l147.521,0c1.559,0 2.834,-1.275 2.834,-2.834l0,-12.17c0.002,-1.556 -1.273,-2.834 -2.832,-2.834z"/>
   <g id="svg_3">
    <path id="svg_4" d="m377.032,46.368l-308.4,0c-10.73,0 -19.459,8.73 -19.459,19.462c0,0 0,37.109 0,50.761c0,6.711 -0.498,7.66 4.004,7.66c2.391,0 5.039,0 7.72,0c3.778,0 3.003,-0.949 3.003,-7.785c0,-13.621 0,-50.636 0,-50.636c0,-2.565 2.168,-4.733 4.732,-4.733l308.4,0c2.563,0 4.731,2.168 4.731,4.733l0,189.999l-219.87,0c0,0 -7.749,-0.014 -7.749,10.006c0,5.941 0,17.823 0,23.766c0,10.006 8,10.006 8,10.006l214.888,0c10.729,0 19.461,-8.729 19.461,-19.459l0,-214.318c0,-10.731 -8.73,-19.462 -19.461,-19.462zm-154.199,236.436c-4.845,0 -8.771,-3.926 -8.771,-8.768s3.926,-8.77 8.771,-8.77c4.84,0 8.767,3.928 8.767,8.77s-3.927,8.768 -8.767,8.768z"/>
    <path id="svg_5" d="m124.125,141.633l-111.566,0c-6.927,0 -12.559,5.633 -12.559,12.56l0,183.372c0,6.926 5.632,12.561 12.559,12.561l111.566,0c6.923,0 12.559,-5.635 12.559,-12.561l0,-183.372c0,-6.927 -5.636,-12.56 -12.559,-12.56zm-69.545,12.81l27.523,0c1.313,0 2.38,1.064 2.38,2.381c0,1.314 -1.066,2.379 -2.38,2.379l-27.523,0c-1.315,0 -2.379,-1.065 -2.379,-2.379c0,-1.317 1.064,-2.381 2.379,-2.381zm13.595,186.861c-3.59,0 -6.5,-2.91 -6.5,-6.5s2.91,-6.5 6.5,-6.5s6.5,2.91 6.5,6.5s-2.91,6.5 -6.5,6.5zm57.718,-19.104c0,1.676 -1.342,3.047 -2.98,3.047l-109.139,0c-1.639,0 -2.98,-1.371 -2.98,-3.047l0,-152.375c0,-1.676 1.342,-3.046 2.98,-3.046l109.139,0c1.639,0 2.98,1.371 2.98,3.046l0,152.375z"/>
   </g>
  </g>
  <g id="svg_6"/>
  <g id="svg_7"/>
  <g id="svg_8"/>
  <g id="svg_9"/>
  <g id="svg_10"/>
  <g id="svg_11"/>
  <g id="svg_12"/>
  <g id="svg_13"/>
  <g id="svg_14"/>
  <g id="svg_15"/>
  <g id="svg_16"/>
  <g id="svg_17"/>
  <g id="svg_18"/>
  <g id="svg_19"/>
  <g id="svg_20"/>
  <text font-style="normal" font-weight="bold" stroke="#000" transform="matrix(4.268533706665039,0,0,5.367842674255371,-440.3838461339474,-426.68363124132156) " xml:space="preserve" text-anchor="start" font-family="Euphoria, sans-serif" font-size="23" id="svg_21" y="115.311413" x="136" stroke-width="0" fill="#000000">RWD</text>
 </g>
</svg>